<?xml version="1.0" standalone="no"?><!DOCTYPE svg PUBLIC "-//W3C//DTD SVG 1.1//EN" "http://www.w3.org/Graphics/SVG/1.1/DTD/svg11.dtd"><svg t="1565345656173" class="icon" viewBox="0 0 1024 1024" version="1.1" xmlns="http://www.w3.org/2000/svg" p-id="4986" xmlns:xlink="http://www.w3.org/1999/xlink" width="128" height="128"><defs><style type="text/css"></style></defs><path d="M510.089552 296.119403c-72.597015 0-145.19403-15.283582-212.059701-42.029851-9.552239-3.820896-13.373134-15.283582-9.552239-24.835821s15.283582-13.373134 24.835821-9.552238c63.044776 26.746269 128 40.119403 196.776119 40.119403 66.865672 0 129.910448-13.373134 191.044776-38.208956 9.552239-3.820896 21.014925 0 24.835821 9.552239s0 21.014925-9.552239 24.835821c-64.955224 26.746269-133.731343 40.119403-206.328358 40.119403z" fill="#13227a" p-id="4987"></path><path d="M794.746269 987.701493h-573.134329c-63.044776 0-114.626866-51.58209-114.626865-114.626866v-687.761194c0-63.044776 51.58209-114.626866 114.626865-114.626866h573.134329c63.044776 0 114.626866 51.58209 114.626865 114.626866v687.761194c0 63.044776-51.58209 114.626866-114.626865 114.626866z m-573.134329-840.597015c-21.014925 0-38.208955 17.19403-38.208955 38.208955v687.761194c0 21.014925 17.19403 38.208955 38.208955 38.208955h573.134329c21.014925 0 38.208955-17.19403 38.208955-38.208955v-687.761194c0-21.014925-17.19403-38.208955-38.208955-38.208955h-573.134329z" fill="#13227a" p-id="4988"></path><path d="M641.910448 601.791045h-267.462687c-15.283582 0-28.656716-13.373134-28.656716-28.656717s13.373134-28.656716 28.656716-28.656716h265.552239c15.283582 0 28.656716 13.373134 28.656716 28.656716s-11.462687 28.656716-26.746268 28.656717zM641.910448 697.313433h-267.462687c-15.283582 0-28.656716-13.373134-28.656716-28.656717s13.373134-28.656716 28.656716-28.656716h265.552239c15.283582 0 28.656716 13.373134 28.656716 28.656716s-11.462687 28.656716-26.746268 28.656717z" fill="#13227a" p-id="4989"></path><path d="M508.179104 819.58209c-15.283582 0-28.656716-13.373134-28.656716-28.656717V575.044776c0-15.283582 13.373134-28.656716 28.656716-28.656716s28.656716 13.373134 28.656717 28.656716v215.880597c0 17.19403-13.373134 28.656716-28.656717 28.656717z" fill="#13227a" p-id="4990"></path><path d="M510.089552 599.880597c-9.552239 0-17.19403-3.820896-22.925373-11.462687l-103.164179-137.552238c-9.552239-13.373134-7.641791-30.567164 5.731343-40.119403s30.567164-7.641791 40.119403 5.731343l103.164179 137.552239c9.552239 13.373134 7.641791 30.567164-5.731343 40.119403-5.731343 3.820896-11.462687 5.731343-17.19403 5.731343z" fill="#13227a" p-id="4991"></path><path d="M504.358209 599.880597c-5.731343 0-11.462687-1.910448-17.19403-5.731343-13.373134-9.552239-15.283582-26.746269-5.731343-40.119403l103.164179-137.552239c9.552239-13.373134 26.746269-15.283582 40.119403-5.731343 13.373134 9.552239 15.283582 26.746269 5.731343 40.119403l-103.164179 137.552238c-5.731343 7.641791-15.283582 11.462687-22.925373 11.462687z" fill="#13227a" p-id="4992"></path></svg>